<svg width="67" height="67" viewBox="0 0 67 67" fill="none" xmlns="http://www.w3.org/2000/svg">
    <ellipse cx="33.5" cy="25.1249" rx="11.1667" ry="11.1667" fill="#33363F"/>
    <circle cx="47.4584" cy="25.125" r="8.375" fill="#33363F"/>
    <circle cx="19.5416" cy="25.125" r="8.375" fill="#33363F"/>
    <path fill-rule="evenodd" clip-rule="evenodd" d="M49.0453 50.2501H57.5201C58.1117 50.2501 58.5679 49.7466 58.4674 49.1636C57.902 45.8813 55.5571 36.2917 47.4584 36.2917C44.9848 36.2917 43.0479 37.1864 41.5345 38.5227C45.7437 41.2535 47.92 46.0353 49.0453 50.2501Z" fill="#33363F"/>
    <path fill-rule="evenodd" clip-rule="evenodd" d="M25.4655 38.5227C23.9522 37.1864 22.0153 36.2917 19.5417 36.2917C11.443 36.2917 9.09803 45.8813 8.5326 49.1635C8.43216 49.7466 8.88833 50.2501 9.47995 50.2501H17.9547C19.08 46.0353 21.2564 41.2535 25.4655 38.5227Z" fill="#33363F"/>
    <path d="M33.5 39.0833C45.3926 39.0833 47.1526 51.2424 47.4131 54.8413C47.4529 55.3921 47.0106 55.8333 46.4583 55.8333H20.5416C19.9893 55.8333 19.547 55.3921 19.5869 54.8413C19.8473 51.2424 21.6073 39.0833 33.5 39.0833Z" fill="#33363F"/>
</svg>
