<svg width="67" height="67" viewBox="0 0 67 67" fill="none" xmlns="http://www.w3.org/2000/svg">
    <path d="M33.5 11.1666L26.9772 22.0379C26.0748 23.542 25.6236 24.294 25.6236 25.1249C25.6236 25.9559 26.0748 26.7079 26.9772 28.2119L33.0713 38.3687C33.2627 38.6878 33.3585 38.8473 33.5 38.8473C33.6415 38.8473 33.7373 38.6878 33.9287 38.3687L40.0228 28.2119C40.9252 26.7079 41.3764 25.9559 41.3764 25.1249C41.3764 24.294 40.9252 23.542 40.0228 22.0379L33.5 11.1666ZM33.5 11.1666V5.58325" stroke="#33363F" stroke-width="2"/>
    <path d="M56.2807 35.1696L43.6044 34.9564C41.8507 34.9269 40.9738 34.9121 40.2542 35.3276C39.5345 35.7431 39.1089 36.5098 38.2576 38.0434L32.5086 48.3994C32.328 48.7247 32.2376 48.8874 32.3084 49.01C32.3792 49.1326 32.5652 49.1357 32.9373 49.142L44.7804 49.3412C46.5341 49.3707 47.411 49.3855 48.1306 48.97C48.8502 48.5545 49.2759 47.7877 50.1272 46.2542L56.2807 35.1696ZM56.2807 35.1696L61.116 32.378" stroke="#33363F" stroke-width="2"/>
    <path d="M10.7193 35.1696L23.3956 34.9564C25.1493 34.9269 26.0262 34.9121 26.7458 35.3276C27.4655 35.7431 27.8911 36.5098 28.7424 38.0434L34.4914 48.3994C34.672 48.7247 34.7624 48.8874 34.6916 49.01C34.6208 49.1326 34.4348 49.1357 34.0627 49.142L22.2196 49.3412C20.4659 49.3707 19.589 49.3855 18.8694 48.97C18.1498 48.5545 17.7241 47.7877 16.8728 46.2542L10.7193 35.1696ZM10.7193 35.1696L5.88403 32.378" stroke="#33363F" stroke-width="2"/>
    <path d="M33.5 41.875V62.8125" stroke="#33363F" stroke-width="2"/>
</svg>
