<svg width="202" height="254" viewBox="0 0 202 254" fill="none" xmlns="http://www.w3.org/2000/svg">
    <path d="M107.934 59.3987C108.916 59.6174 109.887 59.8798 110.847 60.1859C135.853 -20.062 66.8799 -20.062 91.8856 60.1859C92.8457 59.8798 93.8168 59.6174 94.7987 59.3987C96.0969 46.3102 106.636 46.3102 107.934 59.3987Z" fill="#FF0C63"/>
    <path d="M94.7987 119.582C93.8168 119.363 92.8457 119.101 91.8856 118.795C66.8799 199.043 135.853 199.043 110.847 118.795C109.887 119.101 108.916 119.363 107.934 119.582C106.636 132.67 96.0969 132.67 94.7987 119.582Z" fill="#FF0C63"/>
    <path d="M70.7752 92.519C70.688 91.5239 70.6334 90.5289 70.6334 89.512C-13.2535 90.4742 8.0755 156.212 76.503 107.576C75.9147 106.766 75.3685 105.927 74.8665 105.061C62.0036 107.904 58.7197 97.8003 70.7752 92.519Z" fill="#FF0C63"/>
    <path d="M78.4015 109.938C77.7469 109.194 77.1142 108.418 76.525 107.609C9.21035 157.798 65.015 198.441 91.799 118.784C90.8389 118.467 89.9116 118.106 88.9951 117.69C80.3108 127.575 71.7355 121.331 78.4015 109.938Z" fill="#FF0C63"/>
    <path d="M131.958 86.4724C132.056 87.4565 132.1 88.4625 132.1 89.4685C215.986 88.5062 194.657 22.7683 126.23 71.4157C126.819 72.2248 127.321 73.0559 127.877 73.9197C140.729 71.0877 144.013 81.1911 131.958 86.4724Z" fill="#FF0C63"/>
    <path d="M74.8665 73.9198C75.3686 73.0574 75.9148 72.2216 76.503 71.4158C8.0755 22.7575 -13.2535 88.5063 70.6334 89.4686C70.6334 88.4626 70.688 87.4566 70.7752 86.4725C58.7197 81.1912 62.0036 71.0878 74.8665 73.9198Z" fill="#FF0C63"/>
    <path d="M89.0488 61.2791C89.9632 60.8645 90.8992 60.4995 91.8527 60.1856C65.0141 -19.4827 9.20945 21.1607 76.5787 71.3607C77.1678 70.5516 77.8006 69.7643 78.4552 69.0208C71.7346 57.6599 80.3099 51.4053 89.0488 61.2791Z" fill="#FF0C63"/>
    <path d="M132.1 89.4902C132.1 90.5071 132.1 91.5022 131.958 92.4972C144.013 97.7785 140.686 107.882 127.877 105.039C127.365 105.903 126.786 106.745 126.23 107.554C194.657 156.19 215.986 90.4743 132.1 89.4902Z" fill="#FF0C63"/>
    <path d="M113.662 117.712C112.746 118.106 111.818 118.467 110.858 118.806C137.697 198.463 193.501 157.82 126.132 107.63C125.546 108.438 124.92 109.215 124.256 109.96C131.009 121.331 122.39 127.575 113.662 117.712Z" fill="#FF0C63"/>
    <path d="M124.332 69.043C124.998 69.7865 125.619 70.5738 126.209 71.372C193.523 21.1829 137.719 -19.4496 110.935 60.2079C111.888 60.5217 112.824 60.8867 113.739 61.3013C122.39 51.4056 131.009 57.6602 124.332 69.043Z" fill="#FF0C63"/>
    <ellipse cx="101.211" cy="89.4901" rx="22.6939" ry="22.7103" fill="#FFB6B6"/>
    <path d="M201.129 158.248C201.129 158.248 192.643 166.37 179.675 189.085C166.707 211.801 143.592 231.15 123.479 223.425C123.479 223.425 104.99 169.667 201.129 158.248Z" fill="#64B900"/>
    <path d="M179.616 169.81C166.907 180.279 154.563 191.262 142.814 202.744C131.525 214.481 119.002 225.945 112 240.961C118.117 225.527 130.79 213.758 142.338 202.26C154.227 190.84 166.696 180.037 179.695 169.894L179.616 169.81Z" fill="#3D8709"/>
    <path d="M134.137 210.32C134.358 205.664 134.876 201.028 135.686 196.438C135.993 194.726 136.363 193.011 136.795 191.436C137.024 190.642 137.241 189.886 137.447 189.167C137.654 188.449 137.849 187.768 138.161 187.183C138.378 186.625 138.63 186.083 138.916 185.558C139.099 185.139 139.318 184.736 139.569 184.354C139.979 183.714 140.225 183.355 140.225 183.355C140.225 183.355 139.998 183.719 139.602 184.383C139.357 184.768 139.145 185.173 138.967 185.593C138.82 186.103 138.492 186.602 138.289 187.24C138.085 187.877 137.805 188.493 137.713 189.244C137.62 189.995 137.289 190.718 137.061 191.512C136.615 193.062 136.364 194.791 136.113 196.52C135.863 198.249 135.636 199.965 135.48 201.578C135.324 203.191 135.214 204.715 135.145 206.025C134.994 208.622 134.987 210.359 134.987 210.359L134.137 210.32Z" fill="#3D8709"/>
    <path d="M136.347 193.067L136.179 192.794C136.033 192.529 135.906 192.253 135.801 191.969C135.658 191.578 135.547 191.177 135.469 190.768C135.411 190.547 135.366 190.322 135.335 190.095C135.394 189.887 135.289 189.611 135.273 189.382C135.24 189.147 135.226 188.91 135.231 188.674L135.245 187.982C135.264 187.766 135.272 187.55 135.267 187.333L135.425 186.785C135.52 186.096 135.594 185.626 135.594 185.626C135.594 185.626 135.564 186.088 135.501 186.807C135.457 186.958 135.403 187.147 135.462 187.369C135.521 187.591 135.467 187.78 135.483 188.009L135.518 188.674C135.524 188.91 135.553 189.144 135.603 189.374L135.695 190.055L135.878 190.702C135.992 191.075 136.127 191.441 136.28 191.8C136.437 192.111 136.567 192.373 136.667 192.525L136.845 192.76L136.347 193.067Z" fill="#3D8709"/>
    <path d="M145.628 199.378C145.788 195.939 146.17 192.514 146.77 189.125C146.991 187.858 147.268 186.607 147.586 185.43C147.755 184.844 147.912 184.295 148.07 183.747C148.227 183.199 148.363 182.726 148.613 182.286C148.862 181.846 148.995 181.455 149.161 181.093C149.299 180.787 149.459 180.491 149.641 180.208L150.121 179.466L149.679 180.219C149.488 180.502 149.331 180.808 149.212 181.128C149.018 181.519 148.847 181.921 148.702 182.332C148.572 182.786 148.425 183.297 148.273 183.826C148.121 184.355 147.963 184.903 147.795 185.49C147.463 186.643 147.281 187.921 147.084 189.174C146.888 190.427 146.743 191.716 146.62 192.929C146.497 194.142 146.426 195.247 146.379 196.196C146.233 198.201 146.259 199.395 146.259 199.395L145.628 199.378Z" fill="#3D8709"/>
    <path d="M134.086 210.141C138.72 210.859 143.396 211.274 148.084 211.381C149.838 211.415 151.59 211.386 153.225 211.262C154.034 211.229 154.822 211.128 155.58 211.059C156.338 210.99 157.018 210.838 157.719 210.753C158.307 210.646 158.888 210.505 159.46 210.332C159.906 210.237 160.343 210.102 160.765 209.929L161.894 209.497L160.757 209.886C160.271 210.05 159.771 210.166 159.262 210.234C158.689 210.39 158.107 210.509 157.519 210.593C156.88 210.675 156.187 210.804 155.396 210.842C154.606 210.881 153.861 210.974 153.038 210.983C151.42 211.05 149.679 211.041 147.941 210.951C146.204 210.861 144.458 210.728 142.842 210.57C141.226 210.413 139.702 210.221 138.422 210.037C135.824 209.658 134.133 209.336 134.133 209.336L134.086 210.141Z" fill="#3D8709"/>
    <path d="M145.284 200.22C148.687 200.749 152.121 201.052 155.564 201.128C156.829 201.167 158.096 201.142 159.359 201.052C159.957 201.04 160.558 200.946 161.105 200.899C161.652 200.851 162.158 200.731 162.648 200.667C163.079 200.588 163.506 200.485 163.926 200.359C164.261 200.292 164.587 200.186 164.898 200.045L165.727 199.73L164.885 200.021C164.574 200.143 164.252 200.235 163.923 200.297C163.501 200.412 163.071 200.5 162.637 200.562C162.147 200.626 161.646 200.727 161.086 200.75C160.526 200.773 159.949 200.853 159.351 200.866C158.149 200.909 156.858 200.906 155.588 200.828C154.319 200.75 153.006 200.679 151.81 200.561L148.543 200.154C146.573 199.874 145.384 199.655 145.384 199.655L145.284 200.22Z" fill="#3D8709"/>
    <path d="M158.107 201.122L158.302 201.301C158.466 201.443 158.642 201.569 158.829 201.678C159.092 201.84 159.367 201.981 159.652 202.098L160.144 202.24L160.656 202.387C160.82 202.455 160.992 202.504 161.167 202.534L161.641 202.67L162.095 202.801L162.52 202.821L163.389 202.866L162.537 202.764L162.12 202.644L161.192 202.377C161.025 202.339 160.861 202.292 160.699 202.236L160.207 202.094L159.733 201.958C159.478 201.83 159.232 201.684 158.997 201.522C158.834 201.401 158.68 201.268 158.538 201.123L158.375 200.974L158.107 201.122Z" fill="#3D8709"/>
    <path d="M2.81317e-06 158.248C2.81317e-06 158.248 8.48641 166.37 21.4543 189.085C34.4222 211.801 57.5375 231.15 77.6499 223.425C77.6499 223.425 96.1391 169.667 2.81317e-06 158.248Z" fill="#64B900"/>
    <path d="M21.5131 169.81C34.222 180.279 46.566 191.262 58.315 202.744C69.604 214.481 82.1272 225.945 89.1293 240.961C83.0119 225.527 70.3396 213.758 58.7909 202.26C46.9019 190.84 34.4335 180.037 21.4347 169.894L21.5131 169.81Z" fill="#3D8709"/>
    <path d="M66.9927 210.32C66.771 205.664 66.2535 201.028 65.4435 196.438C65.1358 194.726 64.7659 193.011 64.3339 191.436C64.1057 190.642 63.8883 189.886 63.6819 189.167C63.4754 188.449 63.2798 187.769 62.9679 187.183C62.7515 186.625 62.4996 186.083 62.2137 185.558C62.0302 185.139 61.8115 184.736 61.5601 184.354C61.1507 183.714 60.904 183.355 60.904 183.355C60.904 183.355 61.1317 183.72 61.5276 184.383C61.772 184.769 61.9843 185.173 62.1623 185.593C62.309 186.103 62.637 186.602 62.8407 187.24C63.0444 187.877 63.3238 188.493 63.4167 189.244C63.5095 189.995 63.8405 190.718 64.0687 191.512C64.5142 193.062 64.765 194.791 65.0159 196.52C65.2667 198.249 65.4931 199.965 65.6491 201.578C65.8051 203.191 65.9149 204.715 65.9839 206.025C66.1355 208.622 66.1427 210.359 66.1427 210.359L66.9927 210.32Z" fill="#3D8709"/>
    <path d="M64.7826 193.067L64.9501 192.794C65.0967 192.529 65.223 192.253 65.3282 191.969C65.4715 191.578 65.5824 191.177 65.6599 190.768C65.7178 190.547 65.7628 190.322 65.7946 190.095C65.7348 189.887 65.8401 189.611 65.8561 189.382C65.8888 189.147 65.903 188.91 65.8986 188.674L65.8844 187.982C65.865 187.766 65.8576 187.55 65.8621 187.333L65.7045 186.785C65.609 186.096 65.5355 185.626 65.5355 185.626C65.5355 185.626 65.5657 186.088 65.6287 186.807C65.6722 186.958 65.7265 187.147 65.6672 187.369C65.6079 187.591 65.6622 187.78 65.6462 188.009L65.6117 188.674C65.605 188.91 65.5763 189.144 65.5258 189.374L65.4345 190.055L65.2511 190.702C65.137 191.075 65.0027 191.441 64.8489 191.8C64.6922 192.111 64.5626 192.373 64.4626 192.525L64.2842 192.76L64.7826 193.067Z" fill="#3D8709"/>
    <path d="M55.501 199.378C55.3408 195.939 54.9594 192.514 54.3589 189.125C54.1383 187.858 53.8609 186.607 53.543 185.43C53.3745 184.844 53.217 184.295 53.0594 183.747C52.9018 183.199 52.766 182.726 52.5165 182.286C52.267 181.846 52.134 181.455 51.9685 181.093C51.8304 180.786 51.67 180.491 51.4884 180.208L51.0085 179.465L51.4505 180.218C51.6417 180.502 51.7983 180.808 51.9171 181.128C52.1117 181.519 52.282 181.921 52.4272 182.332C52.5576 182.786 52.7043 183.297 52.8565 183.826C53.0086 184.355 53.1662 184.903 53.3346 185.49C53.666 186.643 53.8487 187.921 54.0449 189.174C54.2411 190.427 54.3859 191.716 54.509 192.929C54.6321 194.142 54.7036 195.247 54.7506 196.196C54.8961 198.201 54.8703 199.395 54.8703 199.395L55.501 199.378Z" fill="#3D8709"/>
    <path d="M67.0436 210.141C62.4091 210.859 57.7329 211.274 53.0448 211.381C51.2908 211.415 49.5394 211.386 47.9043 211.262C47.0949 211.229 46.3071 211.128 45.5491 211.059C44.7911 210.99 44.1115 210.838 43.4103 210.753C42.8224 210.646 42.2411 210.505 41.6693 210.332C41.2231 210.237 40.7863 210.102 40.3642 209.929L39.235 209.497L40.3723 209.886C40.8582 210.05 41.3586 210.166 41.8668 210.234C42.44 210.39 43.0224 210.509 43.6105 210.593C44.2494 210.675 44.9425 210.804 45.7329 210.842C46.5234 210.881 47.2679 210.974 48.0908 210.983C49.7096 211.05 51.4501 211.041 53.1878 210.951C54.9256 210.861 56.6714 210.728 58.2872 210.57C59.9031 210.413 61.4269 210.221 62.707 210.037C65.3053 209.658 66.9967 209.336 66.9967 209.336L67.0436 210.141Z" fill="#3D8709"/>
    <path d="M55.8455 200.22C52.4425 200.749 49.0084 201.052 45.5657 201.128C44.3001 201.167 43.0334 201.142 41.7705 201.052C41.1723 201.04 40.5713 200.946 40.0244 200.899C39.4776 200.851 38.9713 200.731 38.4813 200.667C38.0499 200.588 37.6232 200.485 37.2033 200.359C36.8683 200.292 36.5422 200.186 36.2312 200.045L35.4026 199.73L36.2447 200.02C36.5556 200.143 36.8775 200.235 37.2059 200.297C37.6287 200.412 38.0582 200.5 38.492 200.562C38.982 200.626 39.4829 200.727 40.0432 200.75C40.6036 200.773 41.1802 200.853 41.7785 200.866C42.9804 200.909 44.2716 200.906 45.541 200.828C46.8105 200.75 48.1232 200.679 49.3196 200.561L52.5864 200.154C54.5567 199.874 55.7448 199.655 55.7448 199.655L55.8455 200.22Z" fill="#3D8709"/>
    <path d="M43.0221 201.122L42.8274 201.301C42.6637 201.443 42.4871 201.569 42.3 201.678C42.0377 201.84 41.7626 201.981 41.4775 202.098L40.985 202.24L40.4736 202.387C40.309 202.455 40.1375 202.504 39.9621 202.534L39.4885 202.67L39.0339 202.801L38.609 202.821L37.7401 202.866L38.5927 202.764L39.0094 202.644L39.9376 202.377C40.1042 202.339 40.2687 202.292 40.4301 202.236L40.9226 202.094L41.3962 201.958C41.6512 201.83 41.897 201.684 42.132 201.522C42.2957 201.401 42.4494 201.268 42.5917 201.123L42.754 200.974L43.0221 201.122Z" fill="#3D8709"/>
</svg>
