<svg width="67" height="67" viewBox="0 0 67 67" fill="none" xmlns="http://www.w3.org/2000/svg">
    <path d="M5.58337 33.5001L4.80251 32.8754L4.30275 33.5001L4.80251 34.1248L5.58337 33.5001ZM30.7084 34.5001C31.2607 34.5001 31.7084 34.0524 31.7084 33.5001C31.7084 32.9478 31.2607 32.5001 30.7084 32.5001V34.5001ZM15.9692 18.9171L4.80251 32.8754L6.36424 34.1248L17.5309 20.1664L15.9692 18.9171ZM4.80251 34.1248L15.9692 48.0831L17.5309 46.8337L6.36424 32.8754L4.80251 34.1248ZM5.58337 34.5001H30.7084V32.5001H5.58337V34.5001Z" fill="#33363F"/>
    <path d="M27.9166 22.7016V14.5551C27.9166 12.9368 27.9166 12.1276 28.3906 11.5681C28.8645 11.0086 29.6627 10.8756 31.259 10.6095L54.4302 6.74765C57.6733 6.20714 59.2949 5.93688 60.3558 6.83557C61.4166 7.73427 61.4166 9.37818 61.4166 12.666V54.3338C61.4166 57.6217 61.4166 59.2656 60.3558 60.1643C59.2949 61.063 57.6733 60.7927 54.4302 60.2522L31.259 56.3903C29.6627 56.1243 28.8645 55.9912 28.3906 55.4317C27.9166 54.8723 27.9166 54.0631 27.9166 52.4447V44.8507" stroke="#33363F" stroke-width="2"/>
</svg>
