<svg width="67" height="67" viewBox="0 0 67 67" fill="none" xmlns="http://www.w3.org/2000/svg">
    <path fill-rule="evenodd" clip-rule="evenodd" d="M58.625 33.5C58.625 47.3762 47.3762 58.625 33.5 58.625C19.6238 58.625 8.375 47.3762 8.375 33.5C8.375 19.6238 19.6238 8.375 33.5 8.375C47.3762 8.375 58.625 19.6238 58.625 33.5ZM33.5 48.4583C32.9477 48.4583 32.5 48.0106 32.5 47.4583V34.5H19.5417C18.9894 34.5 18.5417 34.0523 18.5417 33.5C18.5417 32.9477 18.9894 32.5 19.5417 32.5H32.5V19.5417C32.5 18.9894 32.9477 18.5417 33.5 18.5417C34.0523 18.5417 34.5 18.9894 34.5 19.5417V32.5H47.4583C48.0106 32.5 48.4583 32.9477 48.4583 33.5C48.4583 34.0523 48.0106 34.5 47.4583 34.5H34.5V47.4583C34.5 48.0106 34.0523 48.4583 33.5 48.4583Z" fill="#222222"/>
</svg>
