<svg width="67" height="67" viewBox="0 0 67 67" fill="none" xmlns="http://www.w3.org/2000/svg">
    <path fill-rule="evenodd" clip-rule="evenodd" d="M30.7083 50.25C41.5009 50.25 50.25 41.5009 50.25 30.7083C50.25 19.9157 41.5009 11.1666 30.7083 11.1666C19.9157 11.1666 11.1666 19.9157 11.1666 30.7083C11.1666 41.5009 19.9157 50.25 30.7083 50.25ZM30.7083 18.5416C29.1105 18.5416 27.5284 18.8563 26.0523 19.4678C24.5762 20.0792 23.2349 20.9754 22.1052 22.1052C20.9754 23.2349 20.0792 24.5762 19.4678 26.0523C18.8563 27.5284 18.5416 29.1105 18.5416 30.7083C18.5416 31.2606 18.9893 31.7083 19.5416 31.7083C20.0939 31.7083 20.5416 31.2606 20.5416 30.7083C20.5416 29.3732 20.8046 28.0512 21.3155 26.8177C21.8264 25.5842 22.5753 24.4634 23.5194 23.5194C24.4634 22.5753 25.5842 21.8264 26.8177 21.3155C28.0512 20.8046 29.3732 20.5416 30.7083 20.5416C31.2606 20.5416 31.7083 20.0939 31.7083 19.5416C31.7083 18.9893 31.2606 18.5416 30.7083 18.5416Z" fill="#222222"/>
    <path d="M55.8333 55.8333L50.25 50.25" stroke="#222222" stroke-width="2" stroke-linecap="round"/>
</svg>
